<?xml version="1.0" encoding="UTF-8"?>
<svg width="24px" height="24px" viewBox="0 0 24 24" version="1.1" xmlns="http://www.w3.org/2000/svg" xmlns:xlink="http://www.w3.org/1999/xlink">
    <title>icPlay Copy@1x</title>
    <g id="Page-1" stroke="none" stroke-width="1" fill="none" fill-rule="evenodd">
        <g id="Home" transform="translate(-20, -536)" fill="#4F008C">
            <g id="icPlay-Copy" transform="translate(20, 536)">
                <path d="M12,0 C5.38405133,0 0,5.38295142 0,12 C0,18.6170486 5.38405133,24 12,24 C18.6170486,24 24,18.6170486 24,12 C24,5.38295142 18.6170486,0 12,0 Z M12,22.4128323 C6.25847846,22.4128323 1.58716774,17.7415215 1.58716774,12 C1.58716774,6.25847846 6.25847846,1.58716774 12,1.58716774 C17.7415215,1.58716774 22.4139322,6.25847846 22.4139322,12 C22.4139322,17.7415215 17.7426214,22.4128323 12,22.4128323 Z" id="Shape"></path>
                <path d="M10.1070577,6.28267644 C9.92887536,6.13800932 9.68337768,6.10871384 9.47615685,6.20739042 C9.26893602,6.30606701 9.13693756,6.51512206 9.13693756,6.74463795 L9.13693756,17.2542621 C9.13651366,17.4839767 9.2683504,17.6934201 9.47565962,17.7923738 C9.68296885,17.8913276 9.92872114,17.8621165 10.1070577,17.7173236 L16.5998167,12.4630614 C16.7401656,12.3503256 16.8218111,12.1800199 16.8218111,12 C16.8218111,11.8199801 16.7401656,11.6496744 16.5998167,11.5369386 L10.1070577,6.28267644" id="Path"></path>
            </g>
        </g>
    </g>
</svg>