<?xml version="1.0" encoding="UTF-8"?>
<svg width="26px" height="16px" viewBox="0 0 26 16" version="1.1" xmlns="http://www.w3.org/2000/svg" xmlns:xlink="http://www.w3.org/1999/xlink">
    <title>More_not selected@1x</title>
    <g id="Page-1" stroke="none" stroke-width="1" fill="none" fill-rule="evenodd">
        <g id="Home" transform="translate(-241, -690)" stroke="#1D252D" stroke-width="2">
            <g id="Group-2" transform="translate(0, 670)">
                <g id="More_not-selected" transform="translate(241, 20)">
                    <line x1="7" y1="8" x2="9" y2="8" id="Path-31-Copy-3"></line>
                    <line x1="12" y1="8" x2="14" y2="8" id="Path-31-Copy-4"></line>
                    <line x1="17" y1="8" x2="19" y2="8" id="Path-31-Copy-5"></line>
                    <path d="M24,1 C24.2761424,1 24.5261424,1.11192881 24.7071068,1.29289322 C24.8880712,1.47385763 25,1.72385763 25,2 L25,14 C25,14.2761424 24.8880712,14.5261424 24.7071068,14.7071068 C24.5261424,14.8880712 24.2761424,15 24,15 L1,15 L1,2 C1,1.72385763 1.11192881,1.47385763 1.29289322,1.29289322 C1.47385763,1.11192881 1.72385763,1 2,1 Z" id="Rectangle"></path>
                </g>
            </g>
        </g>
    </g>
</svg>